<?xml version="1.0" encoding="utf-8"?>
<!-- Generator: Adobe Illustrator 16.0.4, SVG Export Plug-In . SVG Version: 6.00 Build 0)  -->
<!DOCTYPE svg PUBLIC "-//W3C//DTD SVG 1.1//EN" "http://www.w3.org/Graphics/SVG/1.1/DTD/svg11.dtd">
<svg version="1.1" id="Layer_1" xmlns="http://www.w3.org/2000/svg" xmlns:xlink="http://www.w3.org/1999/xlink" x="0px" y="0px"
	 width="132px" height="40px" viewBox="0 0 132 40" enable-background="new 0 0 132 40" xml:space="preserve">
<g>
	<path fill="#FFFFFF" d="M2,37.502L17.6,3.91h5.759l-15.6,33.592H2z"/>
	<path fill="#FFFFFF" d="M41.505,8.712c-0.527-0.146-1.294-0.243-1.87-0.243c-1.535,0-2.736,0.433-3.504,1.345
		c-0.529,0.672-0.865,1.535-0.865,3.695v0.72h7.2v5.283l-7.2-0.004v17.996h-6.239V19.506h-5.999v-5.279l5.999,0.001v-0.961
		c0-3.743,0.864-5.997,2.495-7.583c1.634-1.585,4.081-2.733,7.25-2.733c1.247,0,2.4,0.095,3.694,0.434L41.505,8.712z"/>
	<path fill="#FFFFFF" d="M57.377,13.753c7.054,0,12.383,5.423,12.383,12.143c0,6.723-5.329,12.096-12.383,12.094
		c-7.056,0-12.381-5.377-12.381-12.096C44.996,19.174,50.321,13.751,57.377,13.753z M57.377,32.23c3.648,0,6.143-2.83,6.143-6.334
		s-2.495-6.384-6.143-6.384c-3.649,0-6.143,2.88-6.143,6.382C51.234,29.398,53.728,32.23,57.377,32.23z"/>
	<path fill="#FFFFFF" d="M88.75,19.758c-0.434-0.144-1.348-0.244-2.258-0.244c-2.736,0-4.896,1.97-5.663,3.363v14.639l-6.238-0.002
		V14.235h6.001v2.351c1.389-1.727,3.934-2.826,6.764-2.826c0.912,0,1.441,0.093,2.11,0.188L88.75,19.758z"/>
	<path fill="#FFFFFF" d="M97.335,2c2.26,0,4.08,1.726,4.08,3.983c0,2.255-1.82,3.982-4.08,3.982c-2.253,0-4.077-1.727-4.077-3.982
		C93.258,3.726,95.082,2,97.335,2z M100.456,37.516H94.22V14.237h6.236V37.516z"/>
	<path fill="#FFFFFF" d="M117.529,13.761c7.052,0,12.381,5.426,12.381,12.146c0,6.721-5.329,12.094-12.381,12.094
		c-7.056-0.002-12.388-5.379-12.388-12.1C105.142,19.184,110.474,13.761,117.529,13.761z M117.529,32.242
		c3.646,0,6.143-2.832,6.143-6.336c0-3.506-2.497-6.387-6.143-6.387c-3.649,0-6.146,2.881-6.146,6.385S113.88,32.242,117.529,32.242
		z"/>
</g>
</svg>
