<?xml version="1.0" encoding="utf-8"?>
<!-- Generator: Adobe Illustrator 16.0.4, SVG Export Plug-In . SVG Version: 6.00 Build 0)  -->
<!DOCTYPE svg PUBLIC "-//W3C//DTD SVG 1.1//EN" "http://www.w3.org/Graphics/SVG/1.1/DTD/svg11.dtd">
<svg version="1.1" id="Layer_1" xmlns="http://www.w3.org/2000/svg" xmlns:xlink="http://www.w3.org/1999/xlink" x="0px" y="0px"
	 width="500px" height="500px" viewBox="0 0 500 500" enable-background="new 0 0 500 500" xml:space="preserve">
<g>
	<g>
		<path fill="#D46466" d="M230.585,360.611c0,62.838-51.11,113.777-114.16,113.777c-63.046,0-114.152-50.939-114.152-113.777
			c0-62.843,51.106-113.786,114.152-113.786C179.475,246.826,230.585,297.769,230.585,360.611z"/>
		<path fill="#BD3B3C" d="M116.425,476.662C52.229,476.662,0,424.602,0,360.611c0-63.994,52.229-116.058,116.425-116.058
			c64.201,0,116.432,52.064,116.432,116.058C232.857,424.602,180.626,476.662,116.425,476.662z M116.425,249.099
			c-61.691,0-111.88,50.024-111.88,111.513c0,61.484,50.189,111.506,111.88,111.506c61.695,0,111.887-50.021,111.887-111.506
			C228.312,299.123,178.12,249.099,116.425,249.099z"/>
	</g>
	<g>
		<path fill="#69AB63" d="M364.162,138.933c0,62.844-51.118,113.786-114.162,113.786c-63.042,0-114.152-50.941-114.152-113.786
			c0-62.837,51.109-113.785,114.152-113.785C313.044,25.148,364.162,76.096,364.162,138.933z"/>
		<path fill="#398A30" d="M250,254.992c-64.197,0-116.425-52.064-116.425-116.059c0-63.995,52.228-116.058,116.425-116.058
			c64.201,0,116.434,52.063,116.434,116.058C366.434,202.928,314.201,254.992,250,254.992z M250,27.42
			c-61.69,0-111.879,50.025-111.879,111.513c0,61.488,50.189,111.513,111.879,111.513c61.695,0,111.889-50.024,111.889-111.513
			C361.889,77.445,311.695,27.42,250,27.42z"/>
	</g>
	<g>
		<path fill="#A880BF" d="M497.727,361.057c0,62.846-51.116,113.795-114.159,113.795c-63.048,0-114.144-50.949-114.144-113.795
			c0-62.834,51.096-113.775,114.144-113.775C446.61,247.281,497.727,298.223,497.727,361.057z"/>
		<path fill="#85569E" d="M383.567,477.125c-64.191,0-116.417-52.068-116.417-116.068c0-63.988,52.226-116.048,116.417-116.048
			c64.199,0,116.433,52.06,116.433,116.048C500,425.057,447.767,477.125,383.567,477.125z M383.567,249.554
			c-61.687,0-111.87,50.021-111.87,111.503c0,61.494,50.184,111.523,111.87,111.523c61.694,0,111.886-50.029,111.886-111.523
			C495.453,299.574,445.262,249.554,383.567,249.554z"/>
	</g>
	<path fill="none" d="M230.585,360.611c0,62.838-51.11,113.777-114.16,113.777c-63.046,0-114.152-50.939-114.152-113.777
		c0-62.842,51.106-113.785,114.152-113.785C179.475,246.826,230.585,297.77,230.585,360.611z"/>
	<path fill="#BD3B3C" d="M116.425,476.662C52.229,476.662,0,424.602,0,360.611c0-63.994,52.229-116.058,116.425-116.058
		c64.201,0,116.433,52.064,116.433,116.058C232.857,424.602,180.626,476.662,116.425,476.662z M116.425,249.099
		c-61.69,0-111.879,50.024-111.879,111.513c0,61.484,50.189,111.506,111.879,111.506c61.695,0,111.887-50.021,111.887-111.506
		C228.312,299.123,178.12,249.099,116.425,249.099z"/>
</g>
</svg>
