<?xml version="1.0" encoding="utf-8"?>
<!-- Generator: Adobe Illustrator 16.0.4, SVG Export Plug-In . SVG Version: 6.00 Build 0)  -->
<!DOCTYPE svg PUBLIC "-//W3C//DTD SVG 1.1//EN" "http://www.w3.org/Graphics/SVG/1.1/DTD/svg11.dtd">
<svg version="1.1" id="Layer_1" xmlns="http://www.w3.org/2000/svg" xmlns:xlink="http://www.w3.org/1999/xlink" x="0px" y="0px"
	 width="500px" height="500px" viewBox="0 0 500 500" enable-background="new 0 0 500 500" xml:space="preserve">
<polygon fill="#4C94FF" points="0,0 168.645,71.533 168.645,500 0,417.969 "/>
<polygon fill="#4C94FF" points="331.533,428.467 168.467,500 168.467,71.533 331.533,0 "/>
<polygon fill="#4C94FF" points="331.355,428.467 331.355,0 500,71.533 500,500 "/>
<g>
	<path fill="#FFFFFF" d="M465,368.343c0-24.396-19.516-43.919-43.913-43.919s-43.915,19.522-43.915,43.919
		c0,24.398,19.518,43.914,43.915,43.914S465,392.741,465,368.343z"/>
</g>
<g>
	<g>
		
			<line fill="none" stroke="#FFFFFF" stroke-width="30" stroke-linecap="round" stroke-miterlimit="10" x1="70" y1="230" x2="92.15" y2="241.592"/>
		<polyline fill="none" stroke="#FFFFFF" stroke-width="30" stroke-linecap="round" stroke-miterlimit="10" points="146.317,269.94 
			168.467,281.533 190.823,270.343 		"/>
		
			<line fill="none" stroke="#FFFFFF" stroke-width="30" stroke-linecap="round" stroke-miterlimit="10" stroke-dasharray="44.0516,44.0516" x1="230.215" y1="250.625" x2="289.304" y2="221.049"/>
		<polyline fill="none" stroke="#FFFFFF" stroke-width="30" stroke-linecap="round" stroke-miterlimit="10" points="309,211.19 
			331.355,200 343.499,221.853 		"/>
		
			<line fill="none" stroke="#FFFFFF" stroke-width="30" stroke-linecap="round" stroke-miterlimit="10" x1="372.856" y1="274.681" x2="385" y2="296.533"/>
	</g>
</g>
</svg>
